<svg width="18" height="5" viewBox="0 0 18 5" fill="none" xmlns="http://www.w3.org/2000/svg">
<g id="Group">
<path id="Vector" d="M15.1875 0.09375C13.8606 0.09375 12.7812 1.17587 12.7812 2.5C12.7812 3.82413 13.8593 4.90625 15.1875 4.90625C16.513 4.90625 17.5938 3.8255 17.5938 2.5C17.5938 1.1745 16.513 0.09375 15.1875 0.09375ZM15.1875 3.53125C14.6182 3.53125 14.1562 3.06925 14.1562 2.5C14.1562 1.93212 14.6196 1.46875 15.1875 1.46875C15.7554 1.46875 16.2188 1.93075 16.2188 2.5C16.2188 3.06787 15.7568 3.53125 15.1875 3.53125ZM9 0.09375C7.67175 0.09375 6.59375 1.17587 6.59375 2.5C6.59375 3.82413 7.67313 4.90625 9 4.90625C10.3269 4.90625 11.4062 3.8255 11.4062 2.5C11.4062 1.1745 10.3282 0.09375 9 0.09375ZM9 3.53125C8.43075 3.53125 7.96875 3.06925 7.96875 2.5C7.96875 1.93212 8.43213 1.46875 9 1.46875C9.56787 1.46875 10.0312 1.93075 10.0312 2.5C10.0312 3.06787 9.56925 3.53125 9 3.53125ZM2.8125 0.09375C1.48563 0.09375 0.40625 1.17587 0.40625 2.5C0.40625 3.82413 1.48563 4.90625 2.8125 4.90625C4.138 4.90625 5.21875 3.8255 5.21875 2.5C5.21875 1.1745 4.13663 0.09375 2.8125 0.09375ZM2.8125 3.53125C2.24325 3.53125 1.78125 3.06925 1.78125 2.5C1.78125 1.93212 2.24462 1.46875 2.8125 1.46875C3.38037 1.46875 3.84375 1.93075 3.84375 2.5C3.84375 3.06787 3.38175 3.53125 2.8125 3.53125Z" fill="#F9F9F9"/>
</g>
</svg>
