<svg width="17" height="17" viewBox="0 0 17 17" fill="none" xmlns="http://www.w3.org/2000/svg">
<g id="Group">
<path id="Vector" d="M16.0447 15.2053L13.1472 12.3078C14.1962 11.0649 14.8335 9.461 14.8335 7.70825C14.8335 3.77367 11.6431 0.583252 7.7085 0.583252C3.77391 0.583252 0.583496 3.77367 0.583496 7.70825C0.583496 11.6428 3.77391 14.8333 7.7085 14.8333C9.46204 14.8333 11.0652 14.1968 12.3065 13.147L15.204 16.0445C15.3204 16.1601 15.4732 16.2187 15.6236 16.2187C15.774 16.2187 15.9284 16.1609 16.0432 16.0445C16.2767 15.8125 16.2767 15.4373 16.0447 15.2053ZM1.771 7.70825C1.771 4.43471 4.43495 1.77075 7.7085 1.77075C10.982 1.77075 13.646 4.43471 13.646 7.70825C13.646 10.9818 10.982 13.6458 7.7085 13.6458C4.43495 13.6458 1.771 10.9818 1.771 7.70825Z" fill="#737373"/>
</g>
</svg>
